# xmcd
#
# Track frame offsets:
#	150
#	18372
#	36030
#	48632
#	64752
#	81890
#	95212
#	110500
#	128107
#	146525
#	166097
#	178722
#	195310
#	212260
#	229080
#	250459
#	265212
#	291732
#
# Disc length: 4120 seconds
#
# Revision: 5
# Processed by: cddbd v1.5.2PL0 Copyright (c) Steve Scherf et al.
# Submitted via: dBpowerAMP V4.0
#
DISCID=06101612
DTITLE=Trisha Yearwood - (Songbook) A Collection Of Hits
DYEAR=1997
DGENRE=Country
TTITLE0=How Do I Live
TTITLE1=The Song Remembers When
TTITLE2=The Wrong Side Of Memphis
TTITLE3=In Another's Eyes (Duet with Garth Brooks)
TTITLE4=The Woman Before Me
TTITLE5=Perfect Love
TTITLE6=Thinkin' About You
TTITLE7=Down On My Knees
TTITLE8=She's In Love With The Boy
TTITLE9=Walkaway Joe
TTITLE10=XXX's And OOO's (An American Girl)
TTITLE11=Like We Never Had A Broken Heart
TTITLE12=A Lover Is Forever
TTITLE13=Believe Me Baby I Lied
TTITLE14=On A Bus To St. Cloud
TTITLE15=You Can Sleep While I Drive
TTITLE16=The Flame
TTITLE17=Save The Land (Duet with Lee Kernaghan)
EXTD=
EXTT0=
EXTT1=
EXTT2=
EXTT3=
EXTT4=
EXTT5=
EXTT6=
EXTT7=
EXTT8=
EXTT9=
EXTT10=
EXTT11=
EXTT12=
EXTT13=
EXTT14=
EXTT15=
EXTT16=
EXTT17=
PLAYORDER=
